<?xml version="1.0" standalone="no"?>
<!DOCTYPE svg PUBLIC "-//W3C//DTD SVG 20010904//EN"
 "http://www.w3.org/TR/2001/REC-SVG-20010904/DTD/svg10.dtd">
<svg version="1.0" xmlns="http://www.w3.org/2000/svg"
 width="487.000000pt" height="296.000000pt" viewBox="0 0 487.000000 296.000000"
 preserveAspectRatio="xMidYMid meet">

<g transform="translate(0.000000,296.000000) scale(0.100000,-0.100000)"
fill="#000000" stroke="none">
<path d="M2480 2165 l-21 -34 -34 16 c-47 22 -65 12 -65 -36 0 -38 -2 -40 -35
-47 -47 -8 -50 -18 -25 -59 37 -61 120 -95 185 -77 17 5 48 5 72 0 61 -13 114
4 158 53 44 49 42 71 -8 83 -36 9 -37 11 -37 54 0 48 0 48 -76 26 -16 -4 -27
2 -43 25 -29 40 -44 39 -71 -4z m70 -87 c0 -21 -7 -53 -16 -70 -16 -30 -16
-30 -30 -9 -24 34 -28 83 -9 126 l16 40 20 -24 c12 -14 19 -38 19 -63z m-118
30 c9 -7 18 -29 20 -48 3 -19 9 -43 13 -54 7 -16 6 -17 -13 -7 -28 15 -50 49
-58 89 -7 35 8 43 38 20z m208 -14 c0 -31 -25 -76 -51 -92 -17 -11 -18 -8 -12
41 5 51 22 77 50 77 7 0 13 -11 13 -26z m-231 -95 c19 -22 32 -42 29 -45 -16
-16 -124 58 -112 78 12 19 51 4 83 -33z m296 31 c14 -23 -94 -94 -113 -75 -2
2 14 21 35 43 38 40 66 51 78 32z"/>
<path d="M2325 1878 c-11 -6 -32 -22 -47 -36 -25 -23 -28 -33 -28 -92 0 -37 3
-69 6 -73 4 -3 28 5 55 18 42 22 62 25 151 25 91 0 113 4 181 30 108 41 135
57 142 81 8 24 -19 59 -46 59 -9 0 -43 -10 -73 -22 l-57 -21 -20 21 c-18 20
-30 22 -132 22 -62 0 -121 -6 -132 -12z m241 -29 c11 -19 -18 -29 -84 -29 -46
0 -63 -3 -60 -12 3 -8 28 -14 64 -16 49 -2 77 4 153 33 51 20 100 34 108 30
27 -10 -3 -31 -98 -69 -83 -33 -97 -36 -197 -36 -74 -1 -115 -5 -132 -15 -38
-22 -41 -19 -38 32 3 41 7 50 37 70 30 20 46 23 137 23 65 0 105 -4 110 -11z"/>
<path d="M1025 1576 c-87 -39 -131 -163 -86 -246 21 -40 89 -85 144 -95 49 -8
48 9 -3 24 -46 14 -95 52 -115 92 -8 15 -15 53 -15 83 0 47 4 60 31 90 34 40
84 55 119 36 48 -26 77 -148 65 -271 -6 -59 -11 -72 -29 -79 -19 -7 -19 -9 -4
-15 16 -6 16 -10 2 -43 -29 -69 -73 -99 -121 -81 -35 13 -52 37 -53 74 0 24
-2 27 -10 13 -14 -23 2 -60 37 -88 22 -17 37 -21 67 -17 52 7 86 33 116 90
l25 47 71 0 72 0 6 -32 c3 -17 14 -40 23 -50 18 -20 58 -24 69 -6 4 7 3 8 -5
4 -31 -19 -70 68 -48 106 9 16 9 22 0 25 -18 6 -17 104 2 227 19 124 19 118
-7 114 -21 -3 -24 -11 -35 -103 -6 -55 -12 -134 -12 -176 -1 -87 -3 -89 -79
-89 l-47 0 0 133 c0 118 -2 136 -23 174 -35 66 -92 88 -157 59z"/>
<path d="M2765 1583 c-66 -18 -114 -93 -115 -176 0 -80 44 -139 124 -162 58
-18 66 -18 66 -5 0 5 -16 13 -35 19 -105 29 -161 139 -121 236 16 38 47 62 94
71 67 14 112 -73 112 -217 0 -95 -8 -139 -26 -139 -17 0 -18 -17 -1 -23 9 -3
6 -16 -11 -51 -45 -95 -162 -93 -166 3 -1 33 -16 31 -16 -2 0 -53 63 -94 124
-83 42 8 90 53 107 101 l13 35 73 0 c71 0 73 -1 79 -27 16 -69 64 -94 106 -56
14 13 21 14 30 5 21 -21 65 -14 87 14 12 15 21 34 21 43 1 9 9 0 18 -19 9 -19
26 -36 37 -38 15 -2 17 -1 6 6 -10 7 -12 34 -9 116 3 82 0 107 -10 111 -27 10
-68 4 -99 -15 -50 -30 -68 -65 -70 -139 -2 -67 -18 -96 -49 -84 -22 8 -39 76
-25 102 10 18 9 22 -5 28 -14 5 -15 17 -10 87 7 82 22 192 33 234 4 18 1 22
-20 22 -20 0 -26 -6 -31 -32 -11 -64 -27 -280 -21 -298 8 -26 -22 -40 -82 -40
l-48 0 4 121 c4 132 -9 187 -53 228 -24 22 -76 34 -111 24z m560 -257 c12 -11
12 -15 1 -19 -8 -3 -15 -29 -19 -64 -9 -87 -25 -125 -51 -121 -18 3 -22 11
-24 53 -4 59 12 119 39 146 23 23 36 24 54 5z"/>
<path d="M1926 1572 c-10 -16 -28 -253 -24 -333 2 -65 -1 -90 -12 -105 -14
-17 -13 -18 1 -6 13 10 19 9 29 -3 21 -25 28 -17 20 20 -8 36 4 238 20 340 14
85 13 95 -9 95 -11 0 -22 -3 -25 -8z"/>
<path d="M3806 1563 c-2 -10 -8 -61 -11 -114 -7 -95 -8 -97 -34 -102 -64 -13
-111 -80 -111 -158 0 -26 -7 -51 -17 -63 -18 -21 -18 -21 2 -4 20 16 21 16 33
-2 15 -25 63 -26 85 -2 8 9 21 31 28 47 l12 30 7 -31 c9 -41 18 -54 37 -54 13
0 13 3 3 15 -15 18 -15 220 0 336 14 109 13 119 -9 119 -11 0 -22 -8 -25 -17z
m-24 -289 c-5 -106 -31 -164 -67 -150 -35 13 -10 172 32 204 29 21 38 8 35
-54z"/>
<path d="M2034 1435 c-10 -24 12 -42 34 -29 24 16 21 38 -6 42 -13 2 -25 -3
-28 -13z"/>
<path d="M3922 1368 c-15 -15 -16 -58 -1 -58 18 0 6 -91 -18 -139 -11 -22 -16
-38 -11 -35 14 9 58 105 58 127 0 26 21 16 48 -23 27 -40 27 -47 5 -53 -17 -4
-17 -5 0 -6 23 -1 22 -22 -4 -55 -11 -14 -17 -26 -12 -26 17 0 54 33 63 55 6
16 16 22 32 20 13 -1 15 0 5 2 -10 3 -25 19 -32 37 -8 18 -32 49 -54 69 -24
21 -41 46 -43 63 -3 31 -18 40 -36 22z"/>
<path d="M2116 1362 c-8 -13 -9 -238 -2 -251 15 -24 25 -8 36 57 13 77 49 155
73 160 15 3 17 -8 17 -93 0 -110 9 -135 48 -135 24 1 25 2 8 11 -16 10 -18 20
-11 104 8 115 3 135 -35 135 -27 0 -52 -22 -87 -76 -10 -16 -11 -12 -6 26 3
25 6 49 7 55 1 12 -40 19 -48 7z"/>
<path d="M3418 1251 c-3 -135 -2 -151 16 -151 9 0 16 21 20 59 8 68 53 164 79
169 16 3 17 -5 16 -90 -2 -102 9 -138 43 -138 17 0 18 2 8 15 -10 11 -11 39
-6 105 7 100 -1 130 -37 130 -29 0 -50 -16 -77 -60 l-21 -35 7 58 c6 56 6 57
-19 57 l-26 0 -3 -119z"/>
<path d="M1526 1331 c-42 -28 -68 -74 -68 -123 -1 -60 3 -70 37 -96 37 -29 82
-24 132 14 l35 27 22 -28 c32 -40 73 -32 99 19 l20 38 15 -36 c8 -20 21 -36
29 -36 8 0 11 5 7 12 -4 6 -8 59 -8 117 l-1 106 -35 3 c-20 2 -49 -4 -66 -13
-37 -20 -74 -81 -74 -122 0 -38 -21 -67 -64 -87 -43 -20 -60 -20 -81 0 -15 16
-14 19 18 53 48 51 87 112 87 137 0 38 -57 46 -104 15z m61 -6 c11 -31 -51
-155 -79 -155 -12 0 -2 84 14 115 14 27 39 55 50 55 5 0 11 -7 15 -15z m221 3
c7 -7 8 -16 2 -23 -5 -6 -14 -42 -20 -79 -13 -82 -24 -106 -50 -106 -26 0 -34
47 -20 114 17 82 57 125 88 94z"/>
<path d="M2413 1330 c-38 -23 -60 -62 -68 -121 -4 -24 -8 -55 -11 -67 -3 -15
-1 -21 6 -17 5 3 17 -1 26 -9 32 -33 79 -16 108 39 l15 30 1 -37 c0 -34 -4
-40 -39 -57 -82 -42 -119 -128 -87 -204 12 -31 20 -37 44 -37 16 0 36 8 45 18
23 25 46 94 54 159 7 60 19 75 40 48 12 -18 13 -18 13 -1 0 10 -9 20 -19 23
-18 5 -20 16 -23 114 -2 66 1 111 7 113 17 7 -18 26 -50 26 -16 0 -44 -9 -62
-20z m65 -1 c17 -11 18 -15 2 -88 -21 -96 -35 -123 -63 -119 -19 3 -22 10 -25
50 -4 58 13 123 39 149 22 22 24 23 47 8z m-2 -316 c-9 -93 -28 -146 -53 -141
-49 9 -41 132 12 185 18 18 36 33 40 33 4 0 5 -35 1 -77z"/>
<path d="M2016 1308 c-9 -56 -12 -177 -5 -172 4 2 10 -5 14 -16 4 -11 15 -20
26 -20 19 0 19 1 3 17 -14 14 -16 29 -10 93 3 41 9 87 12 103 5 23 3 27 -14
27 -16 0 -22 -8 -26 -32z"/>
<path d="M3930 1155 c-16 -20 -9 -49 14 -53 18 -4 19 -3 3 13 -13 12 -15 21
-7 36 13 23 7 25 -10 4z"/>
</g>
</svg>
