<?xml version="1.0" standalone="no"?>
<!DOCTYPE svg PUBLIC "-//W3C//DTD SVG 20010904//EN"
 "http://www.w3.org/TR/2001/REC-SVG-20010904/DTD/svg10.dtd">
<svg version="1.0" xmlns="http://www.w3.org/2000/svg"
 width="889.000000pt" height="400.000000pt" viewBox="0 0 889.000000 400.000000"
 preserveAspectRatio="xMidYMid meet">

<g transform="translate(0.000000,400.000000) scale(0.100000,-0.100000)"
fill="#000000" stroke="none">
<path d="M4453 3718 c-17 -18 -47 -59 -67 -90 l-36 -57 -65 29 c-110 50 -162
51 -183 5 -6 -13 -14 -58 -18 -100 -8 -89 -12 -92 -117 -120 -89 -23 -98 -38
-61 -113 34 -70 123 -161 190 -195 93 -47 158 -60 253 -52 87 8 145 9 351 4
107 -3 119 -2 174 24 77 36 133 82 190 158 77 102 61 148 -63 183 -80 22 -91
39 -91 141 0 50 -5 86 -12 93 -17 17 -51 15 -136 -9 -90 -25 -114 -18 -163 48
-36 48 -78 83 -101 83 -8 0 -28 -15 -45 -32z m77 -108 c56 -71 72 -161 49
-272 -13 -63 -58 -158 -74 -158 -6 0 -25 24 -43 54 -42 68 -57 157 -41 235 13
66 58 181 69 181 5 0 23 -18 40 -40z m-264 -95 c23 -18 38 -41 48 -78 25 -84
58 -228 54 -233 -10 -10 -96 56 -121 93 -56 81 -88 183 -71 227 9 24 53 19 90
-9z m555 4 c37 -71 -43 -249 -134 -296 l-30 -15 6 93 c4 52 14 115 23 141 27
82 108 127 135 77z m-691 -227 c52 -32 160 -156 160 -184 0 -17 -5 -19 -31
-13 -79 18 -269 159 -269 200 0 42 69 40 140 -3z m858 22 c28 -19 28 -30 -3
-71 -45 -58 -165 -131 -242 -148 -27 -5 -33 -3 -33 9 0 25 156 182 203 205 50
25 47 25 75 5z"/>
<path d="M4150 2921 c-137 -15 -153 -20 -223 -72 -88 -66 -115 -103 -128 -175
-15 -82 -3 -303 18 -311 8 -3 45 7 81 22 200 84 162 77 462 91 296 14 310 16
493 84 164 61 310 134 341 170 49 58 22 145 -57 184 l-38 18 -101 -32 c-56
-17 -134 -44 -174 -60 l-72 -28 -43 44 c-24 25 -59 49 -79 55 -45 13 -382 20
-480 10z m450 -89 c26 -6 36 -14 38 -30 6 -39 -52 -55 -213 -60 -134 -4 -175
-12 -175 -32 0 -5 26 -17 57 -26 44 -13 83 -15 177 -12 114 5 130 8 271 58 83
28 196 66 253 83 96 29 103 30 119 14 16 -16 15 -18 -8 -43 -46 -49 -357 -181
-489 -207 -41 -8 -165 -18 -275 -22 -256 -8 -332 -18 -396 -50 -28 -15 -57
-24 -65 -21 -20 8 -19 163 2 215 27 68 126 128 233 141 75 10 418 4 471 -8z"/>
<path d="M547 2097 c-114 -43 -215 -150 -268 -285 -19 -47 -23 -77 -23 -172
-1 -107 1 -120 28 -178 61 -131 261 -266 415 -279 46 -4 71 -2 71 4 0 17 -22
30 -93 56 -140 51 -262 150 -313 254 -26 53 -29 69 -32 194 -5 158 1 178 79
263 54 59 126 102 187 112 133 21 214 -65 273 -291 22 -81 24 -111 24 -300 0
-206 -11 -299 -38 -333 -6 -7 -26 -21 -46 -31 l-35 -18 32 -17 c42 -22 41 -41
-9 -143 -86 -178 -207 -240 -338 -174 -73 38 -110 105 -111 201 l-1 45 -19
-24 c-37 -43 -17 -120 48 -193 64 -70 111 -92 193 -90 151 3 252 79 349 259
l55 103 192 0 192 0 11 -56 c22 -105 54 -160 112 -190 32 -16 91 -18 119 -4
28 15 24 32 -6 24 -39 -10 -97 55 -118 133 -22 75 -21 91 2 151 19 48 19 49 0
68 -46 47 -43 265 11 639 16 115 30 222 30 238 0 33 -16 41 -61 30 -28 -8 -36
-17 -47 -48 -29 -87 -59 -373 -71 -667 -8 -205 -13 -227 -60 -248 -15 -7 -83
-15 -153 -18 l-128 -5 0 329 c0 190 -5 348 -11 374 -27 119 -123 250 -212 290
-58 27 -155 25 -230 -3z"/>
<path d="M5151 2104 c-102 -36 -183 -115 -236 -229 -116 -249 -42 -515 172
-623 60 -31 221 -82 256 -82 13 0 17 6 15 22 -2 17 -21 28 -88 53 -143 53
-224 114 -284 215 -48 79 -69 151 -69 239 -1 158 69 279 195 336 224 102 351
-53 380 -462 9 -121 9 -188 0 -271 -13 -131 -30 -179 -66 -188 -32 -8 -35 -39
-5 -55 27 -14 22 -45 -22 -137 -40 -82 -103 -145 -175 -171 -65 -25 -102 -26
-151 -6 -72 30 -106 82 -118 178 -8 66 -20 79 -37 43 -17 -38 5 -123 44 -170
18 -23 57 -50 92 -67 130 -62 269 -29 376 88 52 56 82 109 115 196 l18 47 177
0 c209 0 206 1 240 -104 16 -49 34 -80 64 -112 39 -40 47 -44 92 -44 39 0 61
8 108 37 48 29 62 34 75 24 55 -39 79 -45 138 -31 44 9 65 21 91 49 37 40 72
101 72 126 0 26 18 8 44 -43 30 -58 71 -98 111 -108 l30 -7 -22 24 c-21 23
-22 32 -25 301 -4 329 2 313 -111 313 -60 0 -83 -5 -139 -32 -84 -40 -160
-109 -186 -172 -24 -55 -42 -153 -42 -231 0 -67 -25 -168 -47 -192 -10 -11
-30 -18 -54 -18 -34 0 -42 5 -65 39 -15 23 -30 67 -37 105 -11 65 -9 82 20
168 3 12 -3 21 -20 29 -14 6 -29 19 -32 28 -20 52 12 415 62 708 14 83 23 159
20 167 -4 11 -19 16 -42 16 -43 0 -70 -13 -79 -37 -20 -51 -56 -442 -63 -686
-6 -201 -7 -209 -28 -223 -37 -24 -77 -32 -202 -39 l-119 -7 4 293 c3 234 1
312 -11 383 -30 173 -107 277 -232 315 -79 25 -143 26 -204 5z m1496 -670 c35
-27 42 -48 18 -58 -23 -9 -34 -46 -59 -210 -27 -172 -49 -240 -88 -269 -32
-24 -72 -17 -89 15 -6 11 -13 66 -16 122 -8 171 37 320 119 391 49 42 70 43
115 9z"/>
<path d="M2942 2091 c-8 -4 -17 -26 -22 -47 -25 -112 -60 -620 -60 -880 0
-179 -1 -193 -23 -236 l-23 -45 30 18 30 18 42 -34 c23 -19 45 -35 47 -35 3 0
3 75 0 167 -6 199 16 539 52 808 36 263 35 275 -24 275 -20 0 -42 -4 -49 -9z"/>
<path d="M7962 2077 c-22 -23 -26 -47 -56 -393 -8 -83 -19 -160 -25 -172 -7
-13 -32 -27 -68 -37 -117 -34 -186 -95 -243 -217 -22 -48 -33 -92 -44 -183
-14 -122 -22 -150 -53 -195 -18 -25 -18 -25 15 2 19 16 39 28 45 28 7 0 29
-18 50 -40 35 -37 41 -40 93 -40 95 0 132 31 193 160 l39 84 8 -39 c11 -61 42
-146 61 -167 9 -10 29 -18 45 -18 32 0 33 3 13 33 -42 65 -40 568 6 976 24
217 21 241 -29 241 -17 0 -37 -9 -50 -23z m-90 -662 c5 -16 7 -79 3 -139 -13
-243 -71 -396 -150 -396 -44 0 -60 34 -63 135 -8 211 87 444 176 433 19 -2 28
-11 34 -33z"/>
<path d="M3230 1730 c-22 -22 -26 -51 -10 -81 25 -45 130 -5 130 50 0 46 -83
68 -120 31z"/>
<path d="M8267 1549 c-23 -14 -47 -68 -47 -108 0 -18 10 -41 25 -57 21 -22 25
-37 25 -83 0 -79 -23 -174 -64 -275 -20 -47 -36 -92 -36 -99 1 -45 123 201
146 296 12 49 21 67 33 67 36 0 161 -158 161 -202 0 -9 -17 -23 -37 -31 -34
-14 -35 -16 -13 -16 64 -2 65 -45 4 -140 -26 -39 -44 -75 -41 -78 8 -8 87 40
116 70 13 14 37 47 55 74 28 43 36 49 76 53 41 5 43 6 17 13 -18 5 -39 26 -64
65 -20 31 -48 75 -62 96 -14 22 -60 76 -102 120 -80 85 -102 119 -114 176 -8
37 -31 70 -49 70 -6 0 -19 -5 -29 -11z"/>
<path d="M6908 1328 c-4 -309 0 -465 12 -488 25 -47 60 -6 75 90 28 180 77
324 148 428 42 63 78 85 100 63 7 -7 14 -94 18 -249 4 -152 12 -251 20 -276
14 -41 57 -76 95 -76 31 0 36 11 17 39 -16 23 -18 51 -15 267 2 154 -1 256 -8
282 -30 112 -159 106 -247 -11 -22 -29 -52 -74 -67 -100 -16 -26 -30 -46 -32
-44 -3 2 0 46 6 98 7 52 10 114 8 139 l-3 45 -62 3 -63 3 -2 -213z"/>
<path d="M3433 1518 c-11 -18 -17 -606 -6 -648 6 -24 16 -36 30 -38 26 -4 35
19 72 188 34 156 66 248 117 332 39 64 76 90 97 69 8 -8 16 -90 23 -254 12
-267 20 -304 73 -331 31 -17 82 -21 95 -9 3 4 -6 17 -21 29 -23 18 -28 32 -33
80 -3 33 -2 95 2 139 3 44 7 139 7 210 1 148 -12 188 -67 200 -74 16 -146 -35
-241 -169 l-41 -59 0 40 c0 22 5 77 11 122 9 63 8 85 -1 96 -15 19 -105 20
-117 3z"/>
<path d="M1950 1477 c-65 -18 -112 -50 -170 -115 -63 -71 -91 -142 -98 -249
-7 -131 2 -171 54 -220 62 -60 112 -83 178 -83 75 0 138 26 230 94 l77 57 55
-61 c113 -121 193 -102 284 69 18 34 36 61 40 61 4 0 17 -26 30 -59 27 -75 70
-127 94 -118 12 5 16 13 11 25 -9 21 -24 321 -24 486 l-1 118 -107 -4 c-129
-5 -163 -19 -241 -102 -66 -70 -97 -137 -115 -246 -7 -47 -21 -99 -30 -116
-23 -45 -82 -93 -152 -125 -86 -39 -125 -44 -166 -24 -34 18 -68 53 -69 70 0
6 39 55 86 110 149 174 232 315 218 370 -15 60 -96 87 -184 62z m68 -50 c30
-63 -60 -281 -161 -389 -41 -45 -57 -37 -57 26 0 71 27 201 52 251 11 22 41
64 65 93 51 60 79 65 101 19z m573 16 c37 -22 44 -45 25 -82 -9 -16 -32 -109
-51 -206 -46 -228 -68 -275 -131 -275 -46 0 -65 33 -71 118 -13 170 76 418
161 452 30 12 35 12 67 -7z"/>
<path d="M4315 1472 c-118 -41 -194 -113 -236 -222 -14 -37 -69 -319 -69 -354
0 -3 12 -6 28 -6 15 0 49 -15 76 -35 57 -40 91 -44 151 -16 52 24 87 62 130
142 l35 64 0 -81 c0 -99 -9 -114 -107 -170 -156 -90 -243 -218 -251 -370 -5
-95 21 -193 64 -239 23 -25 30 -27 85 -23 72 5 102 25 145 97 43 70 80 190
108 352 33 190 49 210 111 142 l35 -38 0 28 c0 27 -6 34 -76 96 -18 15 -23 34
-29 102 -6 81 -2 438 6 488 4 21 -2 27 -46 42 -63 23 -97 23 -160 1z m76 -35
c34 -23 34 -24 32 -98 -1 -88 -60 -328 -95 -391 -28 -51 -64 -74 -101 -64 -38
9 -49 38 -55 141 -5 100 14 221 48 299 23 54 95 136 120 136 9 0 32 -10 51
-23z m9 -729 c0 -173 -39 -381 -85 -450 -20 -30 -32 -38 -54 -38 -106 0 -124
224 -34 405 25 50 137 165 161 165 9 0 12 -23 12 -82z"/>
<path d="M3204 1452 c-21 -14 -32 -48 -43 -137 -14 -113 -15 -395 -1 -395 5 0
18 -17 29 -39 21 -40 68 -68 96 -57 14 5 11 12 -13 43 -16 21 -32 50 -36 65
-7 30 18 334 35 434 6 35 9 71 5 79 -6 16 -53 20 -72 7z"/>
<path d="M8287 982 c-52 -54 -42 -129 20 -153 43 -16 48 -5 14 31 -35 38 -39
66 -15 111 21 41 13 45 -19 11z"/>
</g>
</svg>
