<?xml version="1.0" standalone="no"?>
<!DOCTYPE svg PUBLIC "-//W3C//DTD SVG 20010904//EN"
 "http://www.w3.org/TR/2001/REC-SVG-20010904/DTD/svg10.dtd">
<svg version="1.0" xmlns="http://www.w3.org/2000/svg"
 width="333.000000pt" height="240.000000pt" viewBox="0 0 333.000000 240.000000"
 preserveAspectRatio="xMidYMid meet">

<g transform="translate(0.000000,240.000000) scale(0.100000,-0.100000)"
fill="#000000" stroke="none">
<path d="M90 2031 c0 -210 -1 -230 -17 -234 -10 -3 7 -5 37 -5 30 0 47 2 37 5
-16 4 -17 16 -15 116 l3 112 65 0 65 0 3 -112 c3 -109 2 -112 -20 -116 -13 -2
2 -5 32 -5 30 0 49 2 43 5 -19 7 -19 449 0 456 6 3 -4 6 -23 6 l-35 1 3 -110
3 -110 -71 0 -71 0 3 110 c3 108 3 110 -19 110 l-23 0 0 -229z"/>
<path d="M398 2031 c3 -213 1 -230 -15 -234 -10 -3 29 -4 87 -4 l105 2 1 80 0
80 -3 -72 -4 -73 -70 0 -70 0 3 108 3 107 48 -1 c26 0 47 3 47 7 0 4 -21 9
-47 11 l-48 3 -3 98 -3 97 65 0 65 0 4 -57 3 -58 2 68 2 67 -87 0 -88 0 3
-229z"/>
<path d="M727 2253 c-3 -5 -8 -30 -11 -58 -3 -32 -3 -41 3 -25 8 27 7 31 44
-158 17 -85 15 -88 -58 -79 -30 3 -45 1 -45 -7 0 -7 20 -10 60 -8 58 4 59 3
67 -25 4 -15 7 -45 7 -65 1 -35 3 -38 29 -38 16 0 26 4 22 9 -4 8 -95 444 -95
458 0 6 -19 3 -23 -4z"/>
<path d="M918 2041 c3 -191 1 -221 -13 -235 -15 -15 -9 -16 79 -16 70 0 96 3
96 13 0 9 -18 11 -65 9 l-66 -4 3 226 c3 220 2 226 -17 226 -19 0 -20 -6 -17
-219z"/>
<path d="M1138 2253 c9 -3 12 -59 12 -228 0 -169 -3 -225 -12 -228 -7 -3 7 -5
32 -5 25 0 39 2 33 5 -10 3 -13 59 -13 228 0 169 3 225 13 228 6 3 -8 5 -33 5
-25 0 -39 -2 -32 -5z"/>
<path d="M1283 2242 c10 -11 51 -113 91 -228 41 -114 79 -210 85 -212 7 -2 11
13 11 41 0 25 -5 47 -10 49 -6 2 -39 84 -74 183 -61 173 -64 180 -92 183 -28
4 -28 3 -11 -16z"/>
<path d="M1442 2248 c9 -7 18 -20 21 -28 4 -12 6 -12 6 2 1 9 9 22 19 27 14 8
9 10 -22 11 -34 0 -37 -2 -24 -12z"/>
<path d="M1594 2248 c-38 -18 -44 -51 -44 -228 0 -161 1 -170 23 -195 16 -19
34 -27 67 -30 42 -4 37 -1 -17 10 -34 8 -43 55 -43 226 0 169 7 204 42 219 13
5 16 9 8 9 -8 0 -25 -5 -36 -11z"/>
<path d="M1680 2253 c28 -10 40 -36 40 -86 0 -41 3 -48 18 -45 28 6 18 87 -14
116 -14 12 -33 22 -42 21 -14 0 -14 -2 -2 -6z"/>
<path d="M1930 2031 c0 -174 -3 -231 -12 -234 -7 -3 10 -5 37 -5 28 0 42 2 32
5 -16 4 -17 16 -15 116 l3 112 65 0 65 0 3 -112 c3 -109 2 -112 -20 -116 -13
-2 2 -5 32 -5 32 -1 50 2 42 7 -10 6 -13 58 -13 226 0 168 3 220 13 226 8 6 0
9 -22 9 l-35 0 3 -110 3 -110 -71 0 -71 0 3 110 c3 108 3 110 -19 110 l-23 0
0 -229z"/>
<path d="M2314 2245 c-4 -9 -3 -28 0 -43 23 -92 53 -258 49 -266 -3 -4 -30 -6
-59 -4 -50 4 -54 3 -54 -16 0 -15 3 -17 9 -8 5 9 25 12 62 10 l54 -3 9 -53 c7
-43 6 -56 -5 -63 -9 -6 1 -9 31 -9 27 0 40 4 32 8 -7 5 -30 98 -52 213 -22
112 -42 214 -45 227 -6 25 -23 29 -31 7z"/>
<path d="M2500 2249 c22 -8 35 -37 101 -226 41 -119 81 -219 87 -221 17 -5 15
64 -2 91 -8 12 -35 81 -60 152 -85 238 -73 215 -114 214 -35 -1 -35 -1 -12
-10z"/>
<path d="M2673 2248 c14 -11 17 -37 20 -178 l3 -165 2 167 c2 147 4 168 20
177 14 8 9 10 -22 11 -34 0 -37 -2 -23 -12z"/>
<path d="M2788 2031 c3 -213 1 -230 -15 -234 -10 -3 11 -5 47 -5 44 0 55 2 35
7 l-30 6 -3 214 c-2 149 1 218 9 227 9 11 6 14 -17 14 l-29 0 3 -229z"/>
<path d="M2889 2251 c68 -12 71 -20 71 -222 0 -163 -2 -178 -21 -203 -26 -33
-9 -34 28 -2 l28 24 0 176 0 176 -26 26 c-20 20 -39 27 -75 30 l-49 3 44 -8z"/>
<path d="M3086 2239 c-23 -18 -26 -28 -26 -81 0 -65 -4 -60 108 -161 41 -36
42 -39 42 -101 0 -72 -17 -96 -68 -96 -43 0 -62 30 -62 102 0 45 -3 58 -15 58
-12 0 -15 -15 -14 -82 1 -46 3 -75 6 -65 4 16 6 16 30 -3 31 -24 73 -26 113
-5 36 18 45 50 42 135 -2 29 -13 45 -78 105 l-75 71 3 59 c3 52 6 61 28 72 16
8 19 13 9 13 -9 0 -28 -9 -43 -21z"/>
<path d="M3180 2242 c17 -13 24 -32 28 -71 7 -73 26 -60 30 20 1 43 -1 59 -7
49 -8 -12 -12 -12 -29 3 -10 9 -24 17 -31 17 -7 0 -3 -8 9 -18z"/>
<path d="M702 2120 c0 -14 2 -19 5 -12 2 6 2 18 0 25 -3 6 -5 1 -5 -13z"/>
<path d="M2282 2080 c0 -14 2 -19 5 -12 2 6 2 18 0 25 -3 6 -5 1 -5 -13z"/>
<path d="M692 2070 c0 -14 2 -19 5 -12 2 6 2 18 0 25 -3 6 -5 1 -5 -13z"/>
<path d="M2265 2005 c-3 -26 -4 -49 -2 -51 3 -3 8 16 12 41 3 26 4 49 2 51 -3
3 -8 -16 -12 -41z"/>
<path d="M1727 2034 c-4 -4 -7 -50 -7 -102 0 -75 -4 -99 -17 -114 -9 -10 -12
-18 -6 -18 5 0 18 9 29 21 l19 21 7 -24 c3 -12 6 31 5 96 -2 111 -9 140 -30
120z"/>
<path d="M681 2014 c0 -11 3 -14 6 -6 3 7 2 16 -1 19 -3 4 -6 -2 -5 -13z"/>
<path d="M671 1964 c0 -11 3 -14 6 -6 3 7 2 16 -1 19 -3 4 -6 -2 -5 -13z"/>
<path d="M2237 1854 c-3 -20 -14 -42 -24 -50 -16 -12 -14 -13 20 -14 34 0 37
2 23 15 -10 10 -13 26 -9 50 3 19 3 35 1 35 -3 0 -8 -16 -11 -36z"/>
<path d="M627 1814 l-18 -24 38 0 c21 0 33 4 27 8 -6 4 -15 14 -20 24 -8 14
-11 13 -27 -8z"/>
<path d="M1262 1810 c-11 -19 -10 -20 23 -20 l35 0 -20 20 c-11 11 -21 20 -23
20 -1 0 -8 -9 -15 -20z"/>
<path d="M2495 1810 c-18 -20 -18 -20 21 -20 26 0 34 3 25 9 -7 5 -17 14 -20
20 -5 8 -13 5 -26 -9z"/>
<path d="M1884 1585 c-9 -14 -14 -28 -11 -31 3 -3 8 4 12 15 3 12 11 21 16 21
6 0 5 -9 -1 -22 -11 -22 -10 -22 4 -4 18 23 20 32 6 41 -5 3 -17 -6 -26 -20z"/>
<path d="M944 1582 c-21 -16 -49 -61 -42 -66 2 -2 18 17 35 40 18 24 32 44 30
44 -1 0 -12 -8 -23 -18z"/>
<path d="M1025 1582 c-12 -9 -24 -26 -28 -37 -6 -16 -3 -15 14 5 11 14 28 31
37 38 9 6 12 12 6 12 -5 -1 -18 -8 -29 -18z"/>
<path d="M1082 1580 c0 -14 2 -19 5 -12 2 6 2 18 0 25 -3 6 -5 1 -5 -13z"/>
<path d="M1061 1519 c-6 -18 -9 -34 -7 -36 2 -2 9 10 15 28 6 18 9 34 7 36 -2
2 -9 -10 -15 -28z"/>
<path d="M1838 1496 c-14 -22 -24 -44 -21 -49 7 -12 33 13 33 32 0 9 5 22 11
28 6 6 10 16 8 21 -2 5 -16 -9 -31 -32z"/>
<path d="M1762 1508 c-11 -14 -15 -34 -13 -58 1 -8 8 3 16 25 15 42 14 53 -3
33z"/>
<path d="M886 1485 c-9 -26 -7 -32 5 -12 6 10 9 21 6 23 -2 3 -7 -2 -11 -11z"/>
<path d="M1163 1485 c0 -8 4 -12 9 -9 4 3 8 9 8 15 0 5 -4 9 -8 9 -5 0 -9 -7
-9 -15z"/>
<path d="M1224 1478 c-43 -49 -46 -55 -29 -62 9 -3 13 -2 10 4 -7 11 12 50 25
50 5 0 11 -8 13 -17 3 -10 5 -3 6 15 1 38 0 39 -25 10z"/>
<path d="M1317 1493 c-4 -3 -7 -11 -7 -17 0 -6 5 -5 12 2 6 6 9 14 7 17 -3 3
-9 2 -12 -2z"/>
<path d="M1437 1481 c-4 -17 -3 -21 5 -13 5 5 8 16 6 23 -3 8 -7 3 -11 -10z"/>
<path d="M1865 1490 c-4 -6 1 -7 11 -3 14 5 16 2 10 -23 -5 -21 -4 -25 4 -14
14 22 12 50 -4 50 -8 0 -18 -4 -21 -10z"/>
<path d="M2025 1491 c-3 -6 1 -11 9 -11 19 0 19 -4 5 -33 -10 -21 -10 -22 6
-2 8 11 14 26 13 34 -4 18 -24 25 -33 12z"/>
<path d="M2200 1459 c-23 -29 -26 -37 -11 -24 l24 20 -7 -25 c-6 -23 -6 -23 5
-5 6 11 21 31 33 44 11 13 16 21 9 18 -6 -4 -13 -2 -15 4 -2 7 -19 -8 -38 -32z"/>
<path d="M2275 1490 c3 -5 8 -10 11 -10 2 0 4 5 4 10 0 6 -5 10 -11 10 -5 0
-7 -4 -4 -10z"/>
<path d="M2356 1487 c3 -10 9 -15 12 -12 3 3 0 11 -7 18 -10 9 -11 8 -5 -6z"/>
<path d="M1090 1455 c-38 -40 -47 -42 -53 -17 -4 13 -5 11 -6 -5 -2 -39 35
-24 83 35 29 34 14 26 -24 -13z"/>
<path d="M1375 1460 c-17 -16 -45 -33 -64 -36 -31 -6 -34 -5 -27 12 6 15 5 17
-5 7 -7 -7 -21 -13 -30 -13 -10 0 -20 -4 -23 -8 -7 -12 84 -12 115 -1 14 6 36
23 48 40 27 37 23 37 -14 -1z"/>
<path d="M1480 1455 c-38 -39 -50 -43 -50 -18 0 14 -2 15 -17 1 -10 -9 -25
-18 -33 -20 -8 -3 3 -5 25 -5 45 0 64 11 95 50 30 37 20 34 -20 -8z"/>
<path d="M1570 1463 l-21 -28 6 25 6 25 -20 -25 c-11 -14 -21 -28 -21 -32 0
-5 -10 -8 -22 -8 -21 0 -21 0 -2 -14 17 -13 21 -12 37 5 20 21 33 24 42 9 3
-5 12 -10 18 -10 7 0 4 5 -6 11 -12 7 -15 15 -9 22 11 14 23 47 18 47 -3 0
-14 -12 -26 -27z"/>
<path d="M1934 1478 c-4 -7 -14 -24 -23 -38 -8 -14 -11 -22 -6 -18 4 4 14 3
22 -4 7 -6 16 -8 20 -4 3 3 1 6 -5 6 -7 0 -12 7 -12 15 0 8 4 15 8 15 5 0 17
7 28 16 18 14 18 14 -5 3 -21 -10 -23 -9 -18 5 8 19 1 21 -9 4z"/>
<path d="M2091 1467 c-24 -26 -20 -58 8 -56 10 0 11 2 4 6 -18 7 -16 33 4 55
24 27 10 22 -16 -5z"/>
<path d="M2395 1452 c-16 -20 -21 -31 -12 -23 21 17 22 3 2 -26 -10 -14 -12
-24 -5 -28 5 -3 10 -1 10 6 0 7 12 26 28 43 15 17 19 24 10 17 -21 -15 -23 -9
-7 21 18 34 5 29 -26 -10z"/>
<path d="M1141 1441 c-8 -15 -7 -20 6 -25 9 -4 18 -4 21 -1 3 3 0 5 -7 5 -8 0
-10 7 -6 20 8 25 -1 26 -14 1z"/>
<path d="M2131 1441 c-8 -15 -7 -20 6 -25 9 -4 18 -4 21 -1 3 3 0 5 -7 5 -8 0
-11 8 -8 20 6 25 1 26 -12 1z"/>
<path d="M2266 1445 c-3 -9 -16 -20 -28 -25 -21 -9 -21 -10 6 -7 22 1 30 8 32
25 4 25 -1 29 -10 7z"/>
<path d="M2299 1443 c-13 -16 -12 -17 4 -4 9 7 17 15 17 17 0 8 -8 3 -21 -13z"/>
<path d="M866 1435 c-9 -26 -7 -32 5 -12 6 10 9 21 6 23 -2 3 -7 -2 -11 -11z"/>
<path d="M1619 1433 c-13 -16 -12 -17 4 -4 9 7 17 15 17 17 0 8 -8 3 -21 -13z"/>
<path d="M1098 1413 c7 -3 16 -2 19 1 4 3 -2 6 -13 5 -11 0 -14 -3 -6 -6z"/>
<path d="M1607 1070 c-20 -21 -46 -58 -58 -82 -12 -24 -23 -44 -24 -46 -2 -2
-27 4 -56 12 -51 14 -95 19 -148 17 -23 -1 -24 -2 -17 -68 13 -126 81 -231
179 -274 110 -48 293 -35 388 28 73 48 129 163 129 265 l0 48 -62 0 c-35 -1
-81 -7 -103 -15 -56 -20 -59 -19 -74 20 -15 43 -87 135 -105 135 -8 0 -30 -18
-49 -40z m81 -80 c60 -88 53 -208 -17 -299 l-19 -24 -30 42 c-40 55 -57 134
-42 193 15 56 58 130 73 125 7 -2 22 -18 35 -37z m-251 -85 c53 -11 83 -41 83
-83 0 -20 13 -65 30 -100 l29 -62 -27 6 c-85 20 -154 91 -178 186 -15 55 -11
71 14 64 10 -2 31 -7 49 -11z m500 -30 c-8 -55 -36 -111 -74 -147 -29 -28
-121 -74 -130 -65 -2 3 7 27 21 55 14 27 28 73 32 101 6 43 11 54 35 67 24 12
84 30 113 33 5 1 6 -19 3 -44z"/>
<path d="M1160 562 l0 -128 92 -90 92 -89 6 -60 5 -60 105 0 105 0 3 110 c5
178 2 187 -86 277 l-76 78 -31 -30 c-17 -17 -34 -27 -38 -24 -4 4 -7 27 -7 51
0 67 -31 93 -110 93 l-60 0 0 -128z m110 0 l0 -68 73 -72 c73 -73 73 -73 92
-52 18 20 18 21 -18 58 -39 40 -47 69 -21 79 25 9 103 -75 110 -118 8 -50 -29
-93 -80 -93 -32 0 -46 9 -121 84 l-85 85 0 82 c0 82 0 83 25 83 24 0 25 -2 25
-68z m238 -334 c-3 -32 -4 -33 -53 -33 -43 0 -50 3 -50 20 0 15 9 21 38 26 20
3 40 9 44 12 15 16 24 5 21 -25z"/>
<path d="M1999 661 c-24 -24 -29 -38 -29 -75 0 -25 -2 -46 -5 -46 -3 0 -18 15
-35 33 l-29 32 -65 -65 c-92 -90 -96 -101 -96 -270 l0 -141 108 3 107 3 3 61
3 60 89 89 90 90 0 127 0 128 -56 0 c-48 0 -59 -4 -85 -29z m91 -114 l0 -83
-82 -81 c-91 -88 -111 -99 -153 -83 -38 15 -54 38 -55 80 0 30 8 44 50 85 42
41 51 46 65 35 21 -18 19 -25 -20 -69 -39 -43 -42 -53 -19 -71 13 -12 25 -3
85 56 l69 68 0 67 c0 73 3 79 37 79 22 0 23 -3 23 -83z m-221 -307 c26 0 31
-4 31 -25 0 -23 -3 -25 -50 -25 l-50 0 0 35 c0 32 2 35 19 25 11 -5 33 -10 50
-10z"/>
</g>
</svg>
