<?xml version="1.0" standalone="no"?>
<!DOCTYPE svg PUBLIC "-//W3C//DTD SVG 20010904//EN"
 "http://www.w3.org/TR/2001/REC-SVG-20010904/DTD/svg10.dtd">
<svg version="1.0" xmlns="http://www.w3.org/2000/svg"
 width="313.000000pt" height="242.000000pt" viewBox="0 0 313.000000 242.000000"
 preserveAspectRatio="xMidYMid meet">

<g transform="translate(0.000000,242.000000) scale(0.100000,-0.100000)"
fill="#000000" stroke="none">
<path d="M1240 2169 c0 -20 131 -392 143 -404 19 -20 -2 52 -67 229 -65 177
-76 203 -76 175z"/>
<path d="M2196 2162 c-4 -11 -3 -30 2 -43 5 -13 24 -102 42 -196 18 -95 36
-173 41 -173 5 0 9 6 9 13 0 19 -79 410 -84 414 -2 3 -7 -4 -10 -15z"/>
<path d="M110 1960 c0 -133 4 -210 10 -210 6 0 10 42 10 105 l0 105 70 0 70 0
0 -99 c0 -56 4 -103 10 -106 7 -4 10 67 10 205 0 138 -3 209 -10 205 -6 -3
-10 -48 -10 -101 l0 -94 -70 0 -70 0 0 100 c0 60 -4 100 -10 100 -6 0 -10 -77
-10 -210z"/>
<path d="M390 1960 c0 -161 3 -210 13 -210 9 0 12 49 12 210 0 161 -3 210 -12
210 -10 0 -13 -49 -13 -210z"/>
<path d="M696 2155 c-3 -9 -2 -24 3 -33 5 -9 23 -97 42 -194 18 -98 36 -178
41 -178 13 0 10 23 -28 219 -36 186 -46 217 -58 186z"/>
<path d="M880 1960 c0 -161 3 -210 13 -210 9 0 11 47 9 210 -2 126 -7 210 -12
210 -6 0 -10 -82 -10 -210z"/>
<path d="M1100 1960 c0 -133 4 -210 10 -210 6 0 10 77 10 210 0 133 -4 210
-10 210 -6 0 -10 -77 -10 -210z"/>
<path d="M1493 2143 c-26 -39 -32 -292 -9 -348 21 -49 28 -42 15 15 -15 63 -7
324 10 344 8 9 11 16 7 16 -3 0 -14 -12 -23 -27z"/>
<path d="M1629 2147 c6 -16 11 -42 11 -58 0 -16 5 -29 11 -29 17 0 4 79 -16
99 -15 15 -15 14 -6 -12z"/>
<path d="M1840 1960 c0 -133 4 -210 10 -210 6 0 10 42 10 105 l0 105 70 0 70
0 0 -105 c0 -87 3 -105 15 -105 13 0 15 30 15 210 0 180 -2 210 -15 210 -12 0
-15 -18 -15 -100 l0 -100 -70 0 -70 0 0 100 c0 60 -4 100 -10 100 -6 0 -10
-77 -10 -210z"/>
<path d="M2395 2153 c4 -10 37 -102 74 -205 36 -103 69 -188 74 -188 10 0 9
44 -2 55 -5 6 -34 80 -64 165 -71 198 -67 190 -79 190 -6 0 -7 -8 -3 -17z"/>
<path d="M2640 1960 c0 -180 2 -210 15 -210 13 0 15 30 15 210 0 180 -2 210
-15 210 -13 0 -15 -30 -15 -210z"/>
<path d="M2796 2143 c12 -27 15 -318 4 -350 l-10 -28 20 24 c18 21 20 38 20
168 0 109 -4 151 -15 173 -16 32 -33 42 -19 13z"/>
<path d="M2899 2133 c-6 -16 -8 -46 -4 -68 5 -33 18 -51 76 -106 l71 -66 -4
-62 c-2 -51 -1 -59 10 -44 6 9 12 39 12 67 0 49 -1 51 -76 123 l-77 72 5 56
c3 30 3 55 1 55 -2 0 -8 -12 -14 -27z"/>
<path d="M3031 2125 c6 -20 8 -43 5 -51 -3 -7 -1 -16 4 -19 16 -10 12 81 -4
94 -13 11 -13 7 -5 -24z"/>
<path d="M1640 1879 c0 -44 -5 -90 -11 -102 -12 -22 -12 -22 10 -3 18 17 21
30 21 103 0 49 -4 83 -10 83 -6 0 -10 -34 -10 -81z"/>
<path d="M2880 1840 c0 -34 5 -52 20 -65 19 -17 19 -17 11 11 -4 16 -6 45 -4
65 4 28 1 36 -11 36 -12 0 -16 -11 -16 -47z"/>
<path d="M946 1557 c3 -10 9 -15 12 -12 3 3 0 11 -7 18 -10 9 -11 8 -5 -6z"/>
<path d="M984 1548 c-20 -14 -39 -41 -50 -72 -28 -76 -27 -77 7 -8 29 60 72
103 87 88 3 -4 -1 -28 -10 -54 -22 -60 -15 -67 7 -8 16 43 15 76 -2 76 -5 0
-22 -10 -39 -22z"/>
<path d="M1792 1557 c-5 -6 -21 -34 -35 -62 -31 -60 -74 -108 -89 -99 -7 4 -8
2 -4 -4 9 -15 41 1 50 24 4 9 9 14 12 11 3 -3 1 -16 -5 -29 -10 -20 -10 -20 1
-4 49 72 75 87 64 39 -5 -21 -4 -24 4 -13 15 22 12 50 -5 50 -21 0 -19 7 10
42 14 16 25 33 25 38 0 16 -17 20 -28 7z m18 -6 c0 -5 -9 -19 -20 -32 l-21
-24 16 33 c15 31 25 41 25 23z"/>
<path d="M835 1550 c-3 -5 -2 -10 4 -10 5 0 13 5 16 10 3 6 2 10 -4 10 -5 0
-13 -4 -16 -10z"/>
<path d="M899 1547 c-17 -12 -83 -157 -75 -164 2 -2 14 22 27 53 12 32 36 73
52 91 29 33 27 44 -4 20z"/>
<path d="M1678 1488 c-22 -35 -27 -54 -17 -69 7 -11 9 -9 9 8 0 12 4 24 9 27
8 5 22 56 16 56 -2 0 -9 -10 -17 -22z"/>
<path d="M1045 1430 c-46 -47 -60 -50 -51 -12 5 20 4 23 -4 12 -15 -22 -12
-50 5 -50 8 0 32 18 52 40 21 22 44 40 51 40 20 0 -15 -59 -41 -70 -14 -5 -16
-9 -6 -9 8 -1 20 4 27 11 7 7 12 8 12 2 0 -6 36 -11 91 -11 l91 0 37 38 c20
22 42 39 49 39 20 0 -15 -59 -41 -70 -16 -6 -18 -9 -5 -9 9 -1 20 4 24 10 4 8
9 7 15 -2 6 -11 13 -11 26 -3 14 9 23 8 41 -4 20 -13 24 -13 42 3 16 15 22 15
35 5 12 -10 20 -9 40 4 14 9 25 19 25 21 0 3 -11 -2 -25 -11 -13 -8 -28 -13
-34 -10 -12 8 16 66 31 66 6 0 5 -7 -3 -17 -13 -16 -12 -17 4 -4 21 16 22 31
3 31 -8 0 -27 -15 -41 -32 -25 -30 -26 -26 -9 17 13 32 -39 15 -76 -25 -20
-22 -40 -40 -43 -40 -11 0 -8 38 3 45 6 3 10 13 10 21 0 25 -33 15 -70 -20
-35 -35 -90 -58 -90 -38 0 6 11 23 25 38 38 41 30 43 -12 2 -36 -35 -93 -60
-93 -42 1 11 25 44 33 44 3 0 7 -8 10 -17 2 -10 4 -2 4 17 l0 34 -38 -44 c-40
-46 -61 -48 -41 -5 16 35 15 45 -6 45 -10 0 -36 -18 -57 -40z m416 -2 c-22
-36 -51 -49 -51 -24 0 21 35 56 56 56 14 0 13 -5 -5 -32z"/>
<path d="M1832 1443 c-24 -36 -37 -60 -27 -51 4 4 14 3 22 -4 7 -6 16 -8 20
-4 3 3 1 6 -5 6 -22 0 -12 27 13 38 14 6 25 18 25 27 0 24 -27 17 -48 -12z
m38 8 c0 -5 -7 -11 -15 -15 -15 -5 -20 5 -8 17 9 10 23 9 23 -2z"/>
<path d="M1890 1427 l-34 -42 37 34 c41 38 54 37 36 -3 -15 -32 -8 -41 19 -27
15 8 22 8 25 -2 3 -9 9 -9 24 0 15 8 23 9 32 0 8 -8 17 -4 36 13 30 28 31 25
5 -36 -11 -26 -19 -49 -17 -51 3 -2 14 21 26 51 27 66 67 108 81 86 6 -9 10
-10 10 -3 0 19 -20 26 -35 13 -12 -10 -15 -10 -15 1 0 8 -18 -6 -39 -31 -44
-50 -63 -48 -38 5 16 35 16 35 -6 35 -16 0 -18 -3 -8 -9 15 -10 4 -38 -24 -61
-28 -23 -38 3 -14 36 16 21 12 19 -16 -9 -39 -40 -54 -43 -35 -7 12 22 7 51
-7 49 -4 0 -24 -19 -43 -42z"/>
<path d="M2195 1440 c-18 -19 -31 -26 -36 -19 -4 7 -8 5 -12 -5 -4 -9 -17 -21
-29 -26 -22 -8 -22 -9 5 -9 19 -1 38 11 66 39 33 34 40 38 44 23 4 -14 5 -13
6 5 1 30 -10 28 -44 -8z"/>
<path d="M2265 1423 c-26 -33 -29 -35 -36 -17 -7 17 -8 17 -8 -3 -1 -27 6 -29
31 -6 35 31 18 -6 -19 -40 -25 -25 -34 -40 -29 -52 6 -17 7 -17 26 0 11 10 22
27 26 39 3 11 18 34 33 51 14 16 18 23 9 16 -21 -15 -23 -9 -7 21 18 34 5 29
-26 -9z m-30 -100 c-12 -17 -20 -23 -23 -15 -4 14 28 56 36 47 3 -2 -3 -17
-13 -32z"/>
<path d="M1400 1350 c-6 -11 -8 -20 -6 -20 3 0 10 9 16 20 6 11 8 20 6 20 -3
0 -10 -9 -16 -20z"/>
<path d="M1420 1330 c-13 -31 -24 -38 -33 -20 -3 6 -4 5 -3 -2 5 -24 25 -18
41 12 9 18 14 34 12 36 -2 3 -10 -9 -17 -26z"/>
<path d="M1526 1068 c-21 -24 -47 -64 -59 -90 l-21 -46 -31 15 c-16 9 -63 18
-104 21 l-74 5 5 -64 c7 -85 40 -159 93 -208 59 -55 105 -72 206 -78 103 -7
177 12 241 60 56 42 105 138 114 225 l7 62 -60 0 c-33 0 -80 -7 -103 -15 -23
-8 -45 -15 -49 -15 -3 0 -17 22 -29 49 -13 27 -41 65 -61 85 l-38 37 -37 -43z
m94 -121 c34 -77 20 -169 -36 -242 -15 -20 -16 -20 -40 10 -61 74 -64 177 -9
270 25 44 28 46 45 30 10 -9 28 -39 40 -68z m-219 -53 c34 -14 37 -19 41 -64
3 -27 16 -72 30 -100 l26 -52 -27 7 c-14 3 -46 18 -71 33 -47 29 -92 103 -104
171 l-6 33 37 -7 c20 -3 53 -13 74 -21z m435 -15 c-9 -58 -40 -112 -83 -148
-35 -29 -99 -58 -108 -49 -3 2 6 25 19 51 13 26 27 69 31 96 6 44 10 50 43 64
20 9 46 18 57 20 46 10 48 9 41 -34z"/>
<path d="M1107 703 c-3 -5 -5 -57 -6 -117 l-2 -109 90 -91 c89 -90 90 -91 93
-146 l3 -55 100 0 100 0 3 110 c4 159 2 167 -81 252 l-71 73 -33 -32 -33 -32
0 48 c0 39 -5 53 -29 77 -25 24 -38 29 -80 29 -27 0 -52 -3 -54 -7z m101 -124
l3 -65 64 -64 c64 -63 65 -64 85 -45 l21 19 -36 36 c-39 40 -42 52 -20 70 12
10 22 3 60 -36 61 -65 62 -119 3 -150 -42 -22 -64 -11 -150 74 l-78 77 0 78
c0 76 1 78 23 75 20 -3 22 -9 25 -69z m222 -309 c0 -29 -1 -30 -50 -30 -43 0
-50 3 -50 20 0 15 7 20 28 21 15 0 36 4 47 9 11 5 21 9 23 9 1 1 2 -12 2 -29z"/>
<path d="M1915 699 c-34 -20 -45 -41 -45 -93 l0 -50 -35 34 -35 34 -61 -59
c-87 -86 -89 -92 -89 -249 l0 -135 103 2 102 2 3 57 3 57 85 82 85 83 -3 121
-3 120 -45 2 c-25 2 -54 -2 -65 -8z m65 -127 l0 -78 -72 -71 c-40 -39 -83 -76
-95 -82 -49 -25 -107 16 -107 75 0 27 9 43 44 79 50 51 55 53 69 26 8 -15 3
-27 -26 -60 -33 -39 -35 -44 -19 -59 15 -15 21 -12 81 48 l65 64 0 62 c0 68 3
74 37 74 22 0 23 -3 23 -78z m-212 -290 c23 -3 32 -9 32 -23 0 -16 -8 -19 -50
-19 -49 0 -50 0 -50 31 0 26 3 30 18 24 9 -5 32 -10 50 -13z"/>
</g>
</svg>
