<?xml version="1.0" standalone="no"?>
<!DOCTYPE svg PUBLIC "-//W3C//DTD SVG 20010904//EN"
 "http://www.w3.org/TR/2001/REC-SVG-20010904/DTD/svg10.dtd">
<svg version="1.0" xmlns="http://www.w3.org/2000/svg"
 width="340.000000pt" height="150.000000pt" viewBox="0 0 340.000000 150.000000"
 preserveAspectRatio="xMidYMid meet">

<g transform="translate(0.000000,150.000000) scale(0.100000,-0.100000)"
fill="#000000" stroke="none">
<path d="M1804 1325 c-14 -21 -21 -24 -59 -18 -42 5 -43 5 -55 -31 -7 -23 -21
-41 -36 -46 -35 -14 -30 -38 16 -82 l41 -38 120 0 c127 0 149 6 186 49 30 34
29 45 -6 70 -16 12 -32 35 -36 51 -6 28 -10 30 -49 30 -30 0 -48 6 -61 20 -24
27 -41 25 -61 -5z m44 -27 c18 -18 15 -103 -4 -119 -14 -11 -18 -10 -30 6 -17
23 -18 51 -3 94 12 34 19 37 37 19z m-84 -40 c17 -23 22 -88 8 -88 -11 0 -52
74 -52 94 0 23 26 20 44 -6z m183 6 c8 -20 -26 -86 -41 -81 -6 2 -10 19 -8 37
4 52 35 79 49 44z m-217 -92 c21 -26 25 -42 12 -42 -14 0 -82 62 -77 70 9 14
44 -1 65 -28z m270 19 c0 -11 -58 -61 -71 -61 -16 0 -9 20 16 45 24 25 55 33
55 16z"/>
<path d="M1685 1057 c-67 -18 -102 -78 -88 -150 6 -31 12 -32 68 -12 22 8 67
15 100 15 82 1 170 21 240 56 68 34 85 54 65 79 -11 13 -23 15 -59 10 -25 -4
-53 -11 -63 -16 -11 -6 -30 -2 -60 11 -48 22 -136 25 -203 7z m149 -23 c58 -8
59 -20 1 -29 -25 -3 -43 -10 -40 -16 10 -15 48 -10 131 16 43 14 87 25 96 25
34 0 17 -18 -45 -48 -50 -24 -86 -33 -173 -42 -60 -6 -123 -15 -141 -20 -18
-4 -34 -5 -37 -2 -9 8 -7 65 2 79 24 37 101 51 206 37z"/>
<path d="M964 837 c-2 -7 -3 -82 -2 -167 3 -130 5 -155 18 -155 13 0 15 26 18
168 2 146 0 167 -13 167 -9 0 -18 -6 -21 -13z"/>
<path d="M2940 795 c0 -58 -18 -81 -43 -56 -35 35 -108 -7 -127 -74 -30 -107
51 -193 129 -138 22 15 25 15 37 -1 27 -38 34 -6 34 160 0 139 -2 164 -15 164
-12 0 -15 -13 -15 -55z m-20 -95 c22 -22 26 -72 10 -115 -11 -28 -53 -49 -85
-41 -53 13 -60 135 -11 168 21 14 66 8 86 -12z"/>
<path d="M142 673 c3 -133 5 -158 18 -158 12 0 16 17 20 75 l5 75 75 0 75 0 5
-75 c4 -58 8 -75 20 -75 13 0 15 25 18 158 2 151 2 157 -17 157 -18 0 -20 -8
-23 -67 l-3 -68 -75 0 -75 0 -3 68 c-3 59 -5 67 -23 67 -19 0 -19 -6 -17 -157z"/>
<path d="M1102 814 c4 -21 22 -23 26 -1 2 10 -3 17 -13 17 -10 0 -15 -6 -13
-16z"/>
<path d="M1924 817 c-2 -7 -3 -78 -2 -157 3 -129 5 -145 21 -148 15 -3 17 5
17 65 0 40 5 74 12 81 7 7 40 12 80 12 l67 0 3 -77 c3 -65 6 -78 21 -81 16 -3
17 10 17 158 0 148 -1 161 -17 158 -14 -2 -19 -17 -23 -68 l-5 -65 -63 -3
c-82 -4 -92 5 -92 79 0 46 -3 59 -15 59 -9 0 -18 -6 -21 -13z"/>
<path d="M491 719 c-27 -27 -31 -37 -31 -87 0 -60 16 -90 57 -111 30 -15 98
-14 112 2 16 20 3 27 -30 15 -42 -15 -94 17 -94 58 0 29 0 29 68 32 59 3 67 5
67 23 0 11 -7 33 -15 49 -30 58 -87 66 -134 19z m97 -11 c7 -7 12 -22 12 -35
0 -21 -4 -23 -50 -23 -46 0 -50 2 -50 23 0 13 5 28 12 35 15 15 61 15 76 0z"/>
<path d="M743 740 c-39 -16 -27 -30 20 -24 33 5 47 2 60 -11 26 -25 22 -55 -7
-55 -58 0 -116 -42 -116 -84 0 -44 68 -70 110 -44 16 10 24 10 40 0 11 -6 27
-12 35 -12 17 0 20 16 5 25 -5 3 -10 36 -10 73 0 44 -6 79 -18 102 -15 30 -22
35 -57 37 -22 1 -50 -2 -62 -7z m95 -141 c4 -31 -21 -59 -52 -59 -49 0 -62 50
-18 74 39 22 66 16 70 -15z"/>
<path d="M1106 743 c-3 -3 -6 -57 -6 -120 0 -94 3 -113 15 -113 12 0 15 19 15
114 0 105 -6 136 -24 119z"/>
<path d="M1231 732 c-7 -14 -11 -58 -9 -120 2 -78 6 -97 18 -97 12 0 16 16 18
75 4 89 24 120 79 120 39 0 42 -8 45 -120 2 -59 6 -75 18 -75 12 0 16 17 18
85 4 134 -36 179 -115 131 -31 -20 -31 -20 -46 2 l-14 21 -12 -22z"/>
<path d="M1529 722 c-26 -23 -32 -38 -36 -78 -5 -58 11 -94 50 -112 27 -13 38
-12 100 13 25 10 23 -35 -4 -69 -19 -24 -28 -27 -68 -25 -55 3 -69 -14 -18
-22 115 -18 147 27 147 207 0 104 -8 127 -36 103 -11 -9 -20 -9 -40 0 -39 17
-61 13 -95 -17z m109 -18 c18 -12 22 -25 22 -64 0 -41 -4 -52 -26 -69 -60 -47
-111 -9 -101 76 7 68 53 93 105 57z"/>
<path d="M2278 739 c-31 -18 -20 -30 22 -23 46 8 70 -7 70 -41 0 -18 -7 -24
-38 -29 -53 -8 -92 -40 -92 -75 0 -53 56 -77 104 -46 20 13 25 13 42 0 35 -27
71 -16 42 13 -7 7 -15 51 -19 97 -4 68 -9 88 -25 100 -22 17 -81 19 -106 4z
m90 -146 c4 -37 -25 -59 -64 -49 -36 9 -34 61 4 74 42 16 57 10 60 -25z"/>
<path d="M2511 732 c-7 -14 -11 -58 -9 -120 2 -78 6 -97 18 -97 12 0 16 16 18
75 4 89 24 120 79 120 39 0 42 -8 45 -120 2 -59 6 -75 18 -75 12 0 16 17 18
85 4 134 -36 179 -115 131 -31 -20 -31 -20 -46 2 l-14 21 -12 -22z"/>
<path d="M3082 730 c-39 -36 -24 -78 39 -110 48 -25 57 -44 33 -71 -17 -19
-34 -20 -78 -3 -11 4 -16 1 -16 -10 0 -37 103 -34 132 5 30 40 16 75 -44 105
-39 20 -49 29 -46 47 2 18 10 23 46 25 54 4 52 26 -4 30 -29 2 -45 -3 -62 -18z"/>
<path d="M737 324 c-10 -11 -9 -144 2 -144 6 0 11 14 13 32 4 42 22 46 33 6 6
-17 15 -33 20 -35 10 -3 35 42 35 64 0 7 5 13 10 13 6 0 10 -18 10 -39 0 -22
5 -43 10 -46 6 -4 10 23 10 74 0 103 -20 108 -50 14 -7 -24 -15 -43 -18 -43
-10 0 -31 35 -32 51 0 22 -33 62 -43 53z"/>
<path d="M1757 323 c-4 -3 3 -11 16 -17 19 -10 22 -21 25 -74 4 -76 22 -74 22
3 0 42 4 57 20 68 11 8 17 17 13 20 -8 9 -88 9 -96 0z"/>
<path d="M1900 249 c0 -51 4 -78 10 -74 6 3 10 21 10 38 1 74 44 76 55 3 9
-56 25 -51 25 8 0 51 -18 71 -55 62 -22 -6 -25 -3 -25 19 0 14 -4 25 -10 25
-6 0 -10 -34 -10 -81z"/>
<path d="M945 280 c-3 -5 3 -10 13 -10 16 0 20 -7 20 -40 1 -29 -3 -40 -14
-40 -11 0 -13 6 -9 20 8 24 -22 29 -31 5 -10 -26 15 -46 55 -42 35 4 36 6 39
46 2 23 -2 49 -9 57 -13 16 -55 19 -64 4z"/>
<path d="M1062 278 c-19 -19 -14 -36 15 -50 37 -18 41 -38 8 -38 -15 0 -24 -4
-20 -10 9 -14 48 -13 63 2 20 20 14 37 -18 53 -37 19 -39 35 -4 35 14 0 23 4
19 10 -9 14 -48 13 -63 -2z"/>
<path d="M1187 283 c-18 -17 -6 -49 23 -60 39 -15 38 -31 -2 -35 -26 -3 -29
-6 -15 -12 9 -5 28 -5 42 -2 37 9 34 48 -5 63 -37 14 -39 33 -4 33 14 0 23 4
19 10 -7 11 -48 14 -58 3z"/>
<path d="M1315 280 c-3 -6 4 -10 18 -10 22 0 24 -4 23 -47 0 -36 3 -48 14 -48
19 0 26 66 10 95 -11 21 -54 28 -65 10z"/>
<path d="M1436 271 c-23 -25 -20 -68 5 -81 28 -16 34 -7 15 22 -14 21 -14 27
-2 43 8 11 19 16 30 12 19 -7 21 -48 4 -65 -9 -9 -9 -12 0 -12 7 0 12 -9 12
-20 0 -16 -7 -20 -31 -20 -17 0 -28 -4 -24 -10 10 -17 51 -11 69 9 13 14 16
33 14 77 l-3 58 -37 2 c-24 2 -41 -3 -52 -15z"/>
<path d="M1577 272 c-35 -38 -9 -102 41 -102 32 0 36 18 5 22 -19 2 -27 8 -24
18 2 8 3 25 3 38 -1 13 4 22 13 22 8 0 15 -9 15 -20 0 -11 7 -20 15 -20 21 0
19 30 -2 46 -25 19 -47 17 -66 -4z"/>
<path d="M2046 268 c-9 -12 -16 -29 -16 -38 0 -42 66 -81 85 -50 4 6 -6 10
-24 10 -29 0 -30 2 -28 40 1 32 5 40 20 40 14 0 17 -5 12 -20 -5 -15 -2 -20
13 -20 28 0 33 10 15 36 -19 30 -57 31 -77 2z"/>
<path d="M2163 274 c-8 -21 2 -99 12 -99 6 0 11 17 13 38 2 24 10 42 23 50 10
6 19 15 19 18 0 11 -62 4 -67 -7z"/>
<path d="M2275 280 c-3 -6 5 -10 18 -10 22 0 25 -4 25 -40 1 -34 -2 -40 -19
-40 -16 0 -19 5 -14 20 5 14 2 20 -10 20 -12 0 -15 -7 -13 -27 3 -26 6 -28 48
-27 43 0 45 2 48 33 4 42 -21 81 -53 81 -13 0 -27 -4 -30 -10z"/>
<path d="M2394 275 c-9 -22 1 -140 11 -138 6 1 11 12 13 23 3 16 8 19 23 15
47 -15 80 64 42 97 -21 18 -83 20 -89 3z m74 -25 c10 -16 10 -24 0 -40 -17
-26 -42 -21 -46 8 -7 50 22 70 46 32z"/>
<path d="M2526 282 c-3 -5 1 -26 9 -48 18 -49 19 -81 3 -87 -7 -2 -10 -8 -6
-12 14 -14 38 5 54 42 9 21 21 48 26 59 6 12 8 30 5 40 -3 15 -9 9 -23 -23
-10 -24 -22 -43 -25 -43 -4 0 -10 16 -13 35 -7 35 -20 52 -30 37z"/>
<path d="M1294 215 c-4 -8 -1 -22 6 -30 14 -17 40 -20 40 -5 0 6 -4 10 -10 10
-5 0 -10 9 -10 20 0 23 -18 27 -26 5z"/>
</g>
</svg>
